<?xml version="1.0" encoding="UTF-8"?>
<svg xmlns="http://www.w3.org/2000/svg" xmlns:xlink="http://www.w3.org/1999/xlink" width="928px" height="323px" viewBox="0 0 347 121" version="1.1">
<g id="surface1">
<path style=" stroke:none;fill-rule:nonzero;fill:rgb(0%,0%,0%);fill-opacity:1;" d="M 70.847656 27.753906 C 68.453125 29.453125 70.644531 32.847656 73.238281 31.449219 C 74.085938 31.046875 74.285156 30.5 74.1875 29.351562 C 73.988281 27.453125 72.390625 26.707031 70.847656 27.753906 Z M 70.847656 27.753906 "/>
<path style=" stroke:none;fill-rule:nonzero;fill:rgb(0%,0%,0%);fill-opacity:1;" d="M 77.777344 28.203125 C 76.480469 29.800781 78.425781 32.246094 80.167969 31.148438 C 81.863281 30.050781 81.265625 27.453125 79.273438 27.453125 C 78.773438 27.453125 78.125 27.804688 77.777344 28.203125 Z M 77.777344 28.203125 "/>
<path style=" stroke:none;fill-rule:nonzero;fill:rgb(0%,0%,0%);fill-opacity:1;" d="M 84.957031 30.148438 C 84.40625 31.546875 85.003906 32.695312 86.203125 32.695312 C 87.796875 32.695312 88.644531 31.296875 87.796875 30.25 C 86.949219 29.25 85.304688 29.203125 84.957031 30.148438 Z M 84.957031 30.148438 "/>
<path style=" stroke:none;fill-rule:nonzero;fill:rgb(0%,0%,0%);fill-opacity:1;" d="M 52.148438 31.796875 C 51.601562 32.347656 51.851562 32.945312 52.597656 32.945312 C 52.996094 32.945312 53.347656 32.746094 53.347656 32.496094 C 53.347656 31.847656 52.546875 31.398438 52.148438 31.796875 Z M 52.148438 31.796875 "/>
<path style=" stroke:none;fill-rule:nonzero;fill:rgb(0%,0%,0%);fill-opacity:1;" d="M 91.335938 33.792969 C 90.6875 35.09375 91.136719 35.941406 92.535156 35.941406 C 93.980469 35.941406 94.578125 34.742188 93.730469 33.695312 C 92.882812 32.695312 91.886719 32.746094 91.335938 33.792969 Z M 91.335938 33.792969 "/>
<path style=" stroke:none;fill-rule:nonzero;fill:rgb(0%,0%,0%);fill-opacity:1;" d="M 123.492188 33.296875 C 123.292969 33.445312 123.144531 46.171875 123.144531 61.5 L 123.144531 89.351562 L 134.5625 89.351562 L 134.710938 75.972656 C 134.863281 61.050781 135.109375 59.800781 138.550781 57.554688 C 140.792969 56.058594 145.132812 55.957031 147.425781 57.40625 C 150.167969 59.050781 150.566406 61.546875 150.566406 76.472656 L 150.566406 89.351562 L 161.535156 89.351562 L 161.535156 74.226562 C 161.535156 57.902344 161.335938 56.15625 158.84375 52.414062 C 157.996094 51.164062 156.648438 50.015625 154.703125 49.117188 C 152.210938 47.871094 151.214844 47.671875 147.574219 47.671875 C 143.933594 47.671875 142.988281 47.871094 140.792969 49.019531 C 139.449219 49.71875 137.453125 51.265625 136.457031 52.363281 L 134.613281 54.410156 L 134.613281 32.945312 L 129.226562 32.945312 C 126.234375 32.945312 123.644531 33.09375 123.492188 33.296875 Z M 123.492188 33.296875 "/>
<path style=" stroke:none;fill-rule:nonzero;fill:rgb(0%,0%,0%);fill-opacity:1;" d="M 259.75 61.148438 L 259.75 89.351562 L 271.167969 89.351562 L 271.316406 75.726562 C 271.46875 63.097656 271.515625 62.046875 272.515625 60.398438 C 274.058594 57.703125 276.355469 56.40625 279.542969 56.40625 C 282.984375 56.40625 285.027344 57.453125 286.074219 59.800781 C 286.773438 61.347656 286.921875 63.894531 287.074219 75.476562 L 287.222656 89.351562 L 298.140625 89.351562 L 298.140625 74.226562 C 298.140625 57.902344 297.941406 56.15625 295.449219 52.414062 C 294.601562 51.164062 293.253906 50.015625 291.308594 49.117188 C 288.816406 47.871094 287.820312 47.671875 284.179688 47.671875 C 280.542969 47.671875 279.59375 47.871094 277.402344 49.019531 C 276.054688 49.71875 274.058594 51.265625 273.0625 52.363281 L 271.21875 54.410156 L 271.21875 32.945312 L 259.75 32.945312 Z M 259.75 61.148438 "/>
<path style=" stroke:none;fill-rule:nonzero;fill:rgb(0%,0%,0%);fill-opacity:1;" d="M 73.988281 35.140625 C 73.386719 36.6875 73.988281 37.6875 75.53125 37.6875 C 76.878906 37.6875 77.027344 37.539062 77.027344 36.191406 C 77.027344 34.941406 76.828125 34.691406 75.632812 34.542969 C 74.785156 34.441406 74.1875 34.644531 73.988281 35.140625 Z M 73.988281 35.140625 "/>
<path style=" stroke:none;fill-rule:nonzero;fill:rgb(0%,0%,0%);fill-opacity:1;" d="M 46.21875 35.742188 C 45.519531 36.488281 45.917969 37.4375 46.914062 37.4375 C 47.613281 37.4375 47.863281 37.1875 47.761719 36.589844 C 47.613281 35.691406 46.765625 35.242188 46.21875 35.742188 Z M 46.21875 35.742188 "/>
<path style=" stroke:none;fill-rule:nonzero;fill:rgb(0%,0%,0%);fill-opacity:1;" d="M 81.414062 35.789062 C 80.46875 36.140625 80.617188 37.835938 81.664062 38.386719 C 82.910156 39.035156 83.859375 38.335938 83.660156 36.890625 C 83.507812 35.691406 82.613281 35.292969 81.414062 35.789062 Z M 81.414062 35.789062 "/>
<path style=" stroke:none;fill-rule:nonzero;fill:rgb(0%,0%,0%);fill-opacity:1;" d="M 60.324219 36.441406 C 60.324219 36.6875 60.574219 36.9375 60.824219 36.9375 C 61.125 36.9375 61.324219 36.6875 61.324219 36.441406 C 61.324219 36.140625 61.125 35.941406 60.824219 35.941406 C 60.574219 35.941406 60.324219 36.140625 60.324219 36.441406 Z M 60.324219 36.441406 "/>
<path style=" stroke:none;fill-rule:nonzero;fill:rgb(0%,0%,0%);fill-opacity:1;" d="M 96.921875 38.636719 C 96.472656 39.835938 97.121094 41.03125 98.066406 40.832031 C 99.265625 40.632812 99.265625 38.238281 98.066406 38.039062 C 97.617188 37.9375 97.070312 38.238281 96.921875 38.636719 Z M 96.921875 38.636719 "/>
<path style=" stroke:none;fill-rule:nonzero;fill:rgb(0%,0%,0%);fill-opacity:1;" d="M 53.84375 39.183594 C 53.84375 39.585938 54.195312 39.933594 54.59375 39.933594 C 54.992188 39.933594 55.339844 39.585938 55.339844 39.183594 C 55.339844 38.785156 54.992188 38.4375 54.59375 38.4375 C 54.195312 38.4375 53.84375 38.785156 53.84375 39.183594 Z M 53.84375 39.183594 "/>
<path style=" stroke:none;fill-rule:nonzero;fill:rgb(0%,0%,0%);fill-opacity:1;" d="M 87.347656 40.035156 C 87.449219 40.78125 87.847656 41.183594 88.496094 41.183594 C 89.144531 41.183594 89.542969 40.78125 89.640625 40.035156 C 89.792969 39.136719 89.59375 38.9375 88.496094 38.9375 C 87.398438 38.9375 87.199219 39.136719 87.347656 40.035156 Z M 87.347656 40.035156 "/>
<path style=" stroke:none;fill-rule:nonzero;fill:rgb(0%,0%,0%);fill-opacity:1;" d="M 41.082031 41.679688 C 40.683594 42.628906 41.679688 43.476562 42.726562 43.078125 C 43.675781 42.730469 43.324219 41.230469 42.226562 41.03125 C 41.78125 40.933594 41.230469 41.230469 41.082031 41.679688 Z M 41.082031 41.679688 "/>
<path style=" stroke:none;fill-rule:nonzero;fill:rgb(0%,0%,0%);fill-opacity:1;" d="M 78.773438 42.679688 C 77.875 43.726562 78.523438 45.027344 79.871094 44.824219 C 81.167969 44.675781 81.714844 43.027344 80.667969 42.378906 C 79.769531 41.78125 79.472656 41.832031 78.773438 42.679688 Z M 78.773438 42.679688 "/>
<path style=" stroke:none;fill-rule:nonzero;fill:rgb(0%,0%,0%);fill-opacity:1;" d="M 63.566406 42.929688 C 63.714844 43.179688 64.066406 43.429688 64.363281 43.429688 C 64.613281 43.429688 64.8125 43.179688 64.8125 42.929688 C 64.8125 42.628906 64.464844 42.429688 64.015625 42.429688 C 63.617188 42.429688 63.417969 42.628906 63.566406 42.929688 Z M 63.566406 42.929688 "/>
<path style=" stroke:none;fill-rule:nonzero;fill:rgb(0%,0%,0%);fill-opacity:1;" d="M 48.558594 43.476562 C 48.410156 43.777344 48.460938 44.226562 48.757812 44.527344 C 49.40625 45.175781 50.355469 44.625 50.355469 43.628906 C 50.355469 42.828125 49.058594 42.679688 48.558594 43.476562 Z M 48.558594 43.476562 "/>
<path style=" stroke:none;fill-rule:nonzero;fill:rgb(0%,0%,0%);fill-opacity:1;" d="M 92.78125 44.128906 C 92.085938 44.976562 92.433594 45.925781 93.480469 45.925781 C 94.578125 45.925781 94.925781 44.925781 94.128906 44.128906 C 93.480469 43.476562 93.332031 43.476562 92.78125 44.128906 Z M 92.78125 44.128906 "/>
<path style=" stroke:none;fill-rule:nonzero;fill:rgb(0%,0%,0%);fill-opacity:1;" d="M 57.433594 44.976562 C 57.535156 45.273438 57.832031 45.476562 58.082031 45.476562 C 58.332031 45.476562 58.632812 45.273438 58.730469 44.976562 C 58.832031 44.675781 58.53125 44.425781 58.082031 44.425781 C 57.632812 44.425781 57.335938 44.675781 57.433594 44.976562 Z M 57.433594 44.976562 "/>
<path style=" stroke:none;fill-rule:nonzero;fill:rgb(0%,0%,0%);fill-opacity:1;" d="M 100.859375 45.226562 C 100.460938 46.324219 101.757812 47.070312 102.652344 46.222656 C 103.003906 45.824219 103.152344 45.273438 103.003906 44.976562 C 102.503906 44.175781 101.207031 44.328125 100.859375 45.226562 Z M 100.859375 45.226562 "/>
<path style=" stroke:none;fill-rule:nonzero;fill:rgb(0%,0%,0%);fill-opacity:1;" d="M 85.851562 46.023438 C 85.953125 46.671875 86.351562 47.171875 86.75 47.171875 C 87.148438 47.171875 87.546875 46.671875 87.648438 46.023438 C 87.796875 45.175781 87.546875 44.925781 86.75 44.925781 C 85.953125 44.925781 85.703125 45.175781 85.851562 46.023438 Z M 85.851562 46.023438 "/>
<path style=" stroke:none;fill-rule:nonzero;fill:rgb(0%,0%,0%);fill-opacity:1;" d="M 37.992188 48.519531 C 38.089844 49.269531 38.488281 49.667969 39.136719 49.667969 C 39.785156 49.667969 40.183594 49.269531 40.285156 48.519531 C 40.433594 47.621094 40.234375 47.421875 39.136719 47.421875 C 38.039062 47.421875 37.839844 47.621094 37.992188 48.519531 Z M 37.992188 48.519531 "/>
<path style=" stroke:none;fill-rule:nonzero;fill:rgb(0%,0%,0%);fill-opacity:1;" d="M 227.445312 48.171875 C 223.40625 49.070312 220.164062 50.964844 218.621094 53.3125 C 216.175781 57.105469 215.828125 62.496094 217.824219 65.542969 C 219.667969 68.386719 223.058594 69.984375 232.082031 72.179688 C 238.460938 73.679688 241.15625 74.925781 241.804688 76.574219 C 243.398438 80.765625 238.0625 84.261719 232.082031 82.914062 C 229.089844 82.214844 226.648438 80.167969 226.199219 77.871094 L 225.898438 76.375 L 220.613281 76.375 C 214.730469 76.375 214.929688 76.175781 216.175781 80.316406 C 217.722656 85.609375 222.808594 89.203125 230.285156 90.402344 C 235.96875 91.25 243.097656 90.199219 246.789062 87.953125 C 251.175781 85.257812 252.972656 82.0625 252.972656 76.824219 C 253.019531 73.527344 252.871094 72.78125 251.675781 71.03125 C 249.828125 68.238281 245.742188 66.289062 237.613281 64.394531 C 230.484375 62.695312 228.09375 61.546875 227.59375 59.550781 C 226.847656 56.457031 230.835938 54.359375 236.070312 55.109375 C 238.761719 55.558594 241.304688 57.605469 241.304688 59.351562 C 241.304688 60.351562 241.554688 60.398438 246.789062 60.398438 L 252.273438 60.398438 L 251.972656 59.003906 C 250.828125 54.160156 247.785156 50.765625 243 48.917969 C 239.210938 47.519531 231.882812 47.121094 227.445312 48.171875 Z M 227.445312 48.171875 "/>
<path style=" stroke:none;fill-rule:nonzero;fill:rgb(0%,0%,0%);fill-opacity:1;" d="M 45.417969 48.871094 C 44.671875 49.367188 45.019531 50.914062 45.867188 50.914062 C 46.617188 50.914062 47.113281 49.46875 46.566406 48.917969 C 46.316406 48.667969 45.816406 48.667969 45.417969 48.871094 Z M 45.417969 48.871094 "/>
<path style=" stroke:none;fill-rule:nonzero;fill:rgb(0%,0%,0%);fill-opacity:1;" d="M 170.707031 49.117188 C 170.558594 49.46875 170.507812 56.757812 170.65625 65.191406 C 170.859375 82.664062 170.957031 83.261719 174.496094 86.957031 C 177.238281 89.75 179.683594 90.550781 185.214844 90.550781 C 190.003906 90.5 192.097656 89.703125 195.488281 86.507812 L 197.929688 84.210938 L 197.929688 89.351562 L 208.898438 89.351562 L 208.796875 68.984375 L 208.648438 48.667969 L 197.679688 48.667969 L 197.429688 62.398438 C 197.183594 74.976562 197.082031 76.273438 196.183594 77.820312 C 194.6875 80.367188 192.84375 81.515625 189.851562 81.765625 C 186.164062 82.0625 183.671875 80.964844 182.574219 78.519531 C 181.875 76.921875 181.675781 74.425781 181.476562 62.644531 L 181.226562 48.667969 L 176.09375 48.519531 C 172.054688 48.421875 170.957031 48.519531 170.707031 49.117188 Z M 170.707031 49.117188 "/>
<path style=" stroke:none;fill-rule:nonzero;fill:rgb(0%,0%,0%);fill-opacity:1;" d="M 52.847656 49.667969 C 52.847656 50.066406 53.195312 50.417969 53.59375 50.417969 C 53.996094 50.417969 54.34375 50.066406 54.34375 49.667969 C 54.34375 49.269531 53.996094 48.917969 53.59375 48.917969 C 53.195312 48.917969 52.847656 49.269531 52.847656 49.667969 Z M 52.847656 49.667969 "/>
<path style=" stroke:none;fill-rule:nonzero;fill:rgb(0%,0%,0%);fill-opacity:1;" d="M 95.921875 50.464844 C 95.425781 51.316406 96.570312 52.261719 97.269531 51.566406 C 97.867188 50.964844 97.46875 49.917969 96.722656 49.917969 C 96.472656 49.917969 96.121094 50.167969 95.921875 50.464844 Z M 95.921875 50.464844 "/>
<path style=" stroke:none;fill-rule:nonzero;fill:rgb(0%,0%,0%);fill-opacity:1;" d="M 89.09375 50.714844 C 88.394531 51.414062 88.746094 52.464844 89.640625 52.3125 C 90.089844 52.214844 90.488281 51.8125 90.488281 51.464844 C 90.488281 50.667969 89.59375 50.21875 89.09375 50.714844 Z M 89.09375 50.714844 "/>
<path style=" stroke:none;fill-rule:nonzero;fill:rgb(0%,0%,0%);fill-opacity:1;" d="M 103.550781 51.765625 C 102.902344 52.363281 103.203125 52.914062 104.199219 52.914062 C 104.75 52.914062 105.195312 52.5625 105.195312 52.164062 C 105.195312 51.414062 104.148438 51.117188 103.550781 51.765625 Z M 103.550781 51.765625 "/>
<path style=" stroke:none;fill-rule:nonzero;fill:rgb(0%,0%,0%);fill-opacity:1;" d="M 36.34375 54.710938 C 35.898438 55.257812 35.847656 55.707031 36.246094 56.308594 C 36.945312 57.40625 38.390625 57.40625 39.085938 56.257812 C 39.535156 55.507812 39.4375 55.207031 38.6875 54.609375 C 37.441406 53.710938 37.144531 53.710938 36.34375 54.710938 Z M 36.34375 54.710938 "/>
<path style=" stroke:none;fill-rule:nonzero;fill:rgb(0%,0%,0%);fill-opacity:1;" d="M 49.359375 54.910156 C 49.359375 55.707031 49.605469 55.957031 50.503906 55.808594 C 51.101562 55.707031 51.601562 55.308594 51.601562 54.910156 C 51.601562 54.511719 51.101562 54.109375 50.503906 54.011719 C 49.605469 53.859375 49.359375 54.109375 49.359375 54.910156 Z M 49.359375 54.910156 "/>
<path style=" stroke:none;fill-rule:nonzero;fill:rgb(0%,0%,0%);fill-opacity:1;" d="M 43.375 55.65625 C 42.828125 56.308594 42.828125 56.554688 43.476562 57.207031 C 44.472656 58.203125 45.96875 57.554688 45.769531 56.207031 C 45.570312 54.910156 44.273438 54.609375 43.375 55.65625 Z M 43.375 55.65625 "/>
<path style=" stroke:none;fill-rule:nonzero;fill:rgb(0%,0%,0%);fill-opacity:1;" d="M 90.488281 57.355469 C 90.140625 57.953125 91.085938 58.554688 91.734375 58.152344 C 92.285156 57.804688 91.933594 56.90625 91.238281 56.90625 C 90.988281 56.90625 90.6875 57.105469 90.488281 57.355469 Z M 90.488281 57.355469 "/>
<path style=" stroke:none;fill-rule:nonzero;fill:rgb(0%,0%,0%);fill-opacity:1;" d="M 97.320312 57.453125 C 97.417969 57.753906 97.71875 57.953125 97.96875 57.953125 C 98.21875 57.953125 98.515625 57.753906 98.617188 57.453125 C 98.714844 57.15625 98.417969 56.90625 97.96875 56.90625 C 97.519531 56.90625 97.21875 57.15625 97.320312 57.453125 Z M 97.320312 57.453125 "/>
<path style=" stroke:none;fill-rule:nonzero;fill:rgb(0%,0%,0%);fill-opacity:1;" d="M 104.398438 59.101562 C 104 60.199219 104.546875 60.75 105.296875 60 C 105.746094 59.550781 105.746094 59.253906 105.296875 58.804688 C 104.847656 58.355469 104.648438 58.453125 104.398438 59.101562 Z M 104.398438 59.101562 "/>
<path style=" stroke:none;fill-rule:nonzero;fill:rgb(0%,0%,0%);fill-opacity:1;" d="M 50.953125 60.847656 C 49.804688 61.546875 50.453125 63.144531 51.851562 63.144531 C 52.648438 63.144531 53.148438 62.847656 53.246094 62.195312 C 53.394531 61.398438 52.648438 60.398438 51.851562 60.398438 C 51.699219 60.398438 51.300781 60.601562 50.953125 60.847656 Z M 50.953125 60.847656 "/>
<path style=" stroke:none;fill-rule:nonzero;fill:rgb(0%,0%,0%);fill-opacity:1;" d="M 37.042969 61.25 C 36.695312 61.347656 36.394531 62.148438 36.394531 62.945312 C 36.394531 64.195312 36.59375 64.394531 37.839844 64.394531 C 39.734375 64.394531 40.484375 62.597656 39.085938 61.546875 C 38.140625 60.847656 37.992188 60.847656 37.042969 61.25 Z M 37.042969 61.25 "/>
<path style=" stroke:none;fill-rule:nonzero;fill:rgb(0%,0%,0%);fill-opacity:1;" d="M 44.074219 62.097656 C 43.074219 62.847656 43.375 64.242188 44.671875 64.742188 C 45.667969 65.140625 47.015625 63.792969 46.617188 62.796875 C 46.167969 61.648438 45.121094 61.347656 44.074219 62.097656 Z M 44.074219 62.097656 "/>
<path style=" stroke:none;fill-rule:nonzero;fill:rgb(0%,0%,0%);fill-opacity:1;" d="M 89.742188 63.894531 C 89.742188 64.144531 89.992188 64.394531 90.238281 64.394531 C 90.539062 64.394531 90.738281 64.144531 90.738281 63.894531 C 90.738281 63.59375 90.539062 63.394531 90.238281 63.394531 C 89.992188 63.394531 89.742188 63.59375 89.742188 63.894531 Z M 89.742188 63.894531 "/>
<path style=" stroke:none;fill-rule:nonzero;fill:rgb(0%,0%,0%);fill-opacity:1;" d="M 96.722656 64.394531 C 96.722656 64.644531 96.96875 64.894531 97.21875 64.894531 C 97.519531 64.894531 97.71875 64.644531 97.71875 64.394531 C 97.71875 64.09375 97.519531 63.894531 97.21875 63.894531 C 96.96875 63.894531 96.722656 64.09375 96.722656 64.394531 Z M 96.722656 64.394531 "/>
<path style=" stroke:none;fill-rule:nonzero;fill:rgb(0%,0%,0%);fill-opacity:1;" d="M 103.203125 66.390625 C 103.203125 66.640625 103.453125 66.890625 103.699219 66.890625 C 104 66.890625 104.199219 66.640625 104.199219 66.390625 C 104.199219 66.089844 104 65.890625 103.699219 65.890625 C 103.453125 65.890625 103.203125 66.089844 103.203125 66.390625 Z M 103.203125 66.390625 "/>
<path style=" stroke:none;fill-rule:nonzero;fill:rgb(0%,0%,0%);fill-opacity:1;" d="M 46.714844 67.9375 C 45.121094 68.835938 46.015625 71.382812 47.960938 71.382812 C 48.910156 71.382812 50.054688 69.636719 49.605469 68.886719 C 49.007812 67.9375 47.613281 67.488281 46.714844 67.9375 Z M 46.714844 67.9375 "/>
<path style=" stroke:none;fill-rule:nonzero;fill:rgb(0%,0%,0%);fill-opacity:1;" d="M 38.738281 68.1875 C 38.539062 68.386719 38.390625 69.1875 38.390625 69.933594 C 38.390625 70.882812 38.6875 71.433594 39.386719 71.632812 C 40.78125 72.082031 41.980469 70.984375 41.78125 69.433594 C 41.679688 68.488281 41.332031 68.085938 40.382812 67.988281 C 39.6875 67.886719 38.9375 67.988281 38.738281 68.1875 Z M 38.738281 68.1875 "/>
<path style=" stroke:none;fill-rule:nonzero;fill:rgb(0%,0%,0%);fill-opacity:1;" d="M 97.769531 73.277344 C 97.121094 74.527344 97.617188 76.273438 98.765625 76.625 C 101.058594 77.371094 102.804688 75.425781 101.707031 73.378906 C 101.007812 72.082031 98.464844 72.03125 97.769531 73.277344 Z M 97.769531 73.277344 "/>
<path style=" stroke:none;fill-rule:nonzero;fill:rgb(0%,0%,0%);fill-opacity:1;" d="M 91.039062 73.527344 C 89.390625 74.726562 91.039062 77.320312 92.980469 76.574219 C 93.980469 76.175781 94.429688 74.476562 93.730469 73.628906 C 92.980469 72.679688 92.183594 72.679688 91.039062 73.527344 Z M 91.039062 73.527344 "/>
<path style=" stroke:none;fill-rule:nonzero;fill:rgb(0%,0%,0%);fill-opacity:1;" d="M 42.226562 74.277344 C 41.132812 75.476562 41.179688 76.523438 42.277344 77.523438 C 43.476562 78.621094 44.523438 78.570312 45.519531 77.472656 C 46.664062 76.222656 46.566406 75.074219 45.269531 74.175781 C 43.824219 73.128906 43.226562 73.179688 42.226562 74.277344 Z M 42.226562 74.277344 "/>
<path style=" stroke:none;fill-rule:nonzero;fill:rgb(0%,0%,0%);fill-opacity:1;" d="M 82.859375 74.328125 C 81.714844 75.027344 82.363281 76.625 83.757812 76.625 C 84.753906 76.625 85.003906 76.375 85.003906 75.375 C 85.003906 74.078125 84.007812 73.578125 82.859375 74.328125 Z M 82.859375 74.328125 "/>
<path style=" stroke:none;fill-rule:nonzero;fill:rgb(0%,0%,0%);fill-opacity:1;" d="M 60.574219 75.875 C 60.726562 76.125 60.972656 76.375 61.125 76.375 C 61.222656 76.375 61.324219 76.125 61.324219 75.875 C 61.324219 75.574219 61.074219 75.375 60.773438 75.375 C 60.527344 75.375 60.425781 75.574219 60.574219 75.875 Z M 60.574219 75.875 "/>
<path style=" stroke:none;fill-rule:nonzero;fill:rgb(0%,0%,0%);fill-opacity:1;" d="M 65.410156 79.46875 C 65.710938 80.367188 66.808594 80.515625 66.808594 79.667969 C 66.808594 79.21875 66.457031 78.871094 66.011719 78.871094 C 65.5625 78.871094 65.3125 79.121094 65.410156 79.46875 Z M 65.410156 79.46875 "/>
<path style=" stroke:none;fill-rule:nonzero;fill:rgb(0%,0%,0%);fill-opacity:1;" d="M 87.25 79.617188 C 86.402344 80.667969 87 81.863281 88.445312 81.863281 C 89.792969 81.863281 90.539062 80.566406 89.691406 79.570312 C 88.945312 78.671875 88.046875 78.671875 87.25 79.617188 Z M 87.25 79.617188 "/>
<path style=" stroke:none;fill-rule:nonzero;fill:rgb(0%,0%,0%);fill-opacity:1;" d="M 95.523438 79.519531 C 94.226562 80.46875 94.628906 82.5625 96.121094 82.761719 C 98.316406 83.113281 99.464844 81.164062 97.917969 79.667969 C 96.96875 78.71875 96.671875 78.671875 95.523438 79.519531 Z M 95.523438 79.519531 "/>
<path style=" stroke:none;fill-rule:nonzero;fill:rgb(0%,0%,0%);fill-opacity:1;" d="M 77.476562 80.117188 C 77.277344 80.566406 77.378906 81.164062 77.675781 81.464844 C 78.425781 82.214844 79.871094 81.515625 79.671875 80.515625 C 79.472656 79.367188 77.875 79.070312 77.476562 80.117188 Z M 77.476562 80.117188 "/>
<path style=" stroke:none;fill-rule:nonzero;fill:rgb(0%,0%,0%);fill-opacity:1;" d="M 71.492188 80.417969 C 71.34375 80.714844 71.394531 81.164062 71.695312 81.464844 C 72.339844 82.113281 73.289062 81.566406 73.289062 80.566406 C 73.289062 79.769531 71.992188 79.617188 71.492188 80.417969 Z M 71.492188 80.417969 "/>
<path style=" stroke:none;fill-rule:nonzero;fill:rgb(0%,0%,0%);fill-opacity:1;" d="M 56.835938 81.863281 C 56.835938 82.113281 57.085938 82.363281 57.335938 82.363281 C 57.632812 82.363281 57.832031 82.113281 57.832031 81.863281 C 57.832031 81.566406 57.632812 81.367188 57.335938 81.367188 C 57.085938 81.367188 56.835938 81.566406 56.835938 81.863281 Z M 56.835938 81.863281 "/>
<path style=" stroke:none;fill-rule:nonzero;fill:rgb(0%,0%,0%);fill-opacity:1;" d="M 82.113281 83.660156 C 81.515625 84.261719 81.714844 85.757812 82.414062 86.007812 C 83.460938 86.40625 84.355469 85.609375 84.15625 84.558594 C 84.007812 83.613281 82.710938 83.0625 82.113281 83.660156 Z M 82.113281 83.660156 "/>
<path style=" stroke:none;fill-rule:nonzero;fill:rgb(0%,0%,0%);fill-opacity:1;" d="M 62.820312 85.609375 C 62.820312 86.007812 63.066406 86.355469 63.316406 86.355469 C 63.617188 86.355469 63.816406 86.007812 63.816406 85.609375 C 63.816406 85.210938 63.617188 84.859375 63.316406 84.859375 C 63.066406 84.859375 62.820312 85.210938 62.820312 85.609375 Z M 62.820312 85.609375 "/>
<path style=" stroke:none;fill-rule:nonzero;fill:rgb(0%,0%,0%);fill-opacity:1;" d="M 90.738281 85.609375 C 89.839844 86.707031 90.6875 88.105469 92.285156 88.105469 C 93.28125 88.105469 93.480469 87.855469 93.480469 86.605469 C 93.480469 85.457031 93.230469 85.058594 92.433594 84.960938 C 91.886719 84.859375 91.085938 85.160156 90.738281 85.609375 Z M 90.738281 85.609375 "/>
<path style=" stroke:none;fill-rule:nonzero;fill:rgb(0%,0%,0%);fill-opacity:1;" d="M 75.632812 86.507812 C 75.484375 86.90625 75.53125 87.503906 75.78125 87.855469 C 76.328125 88.753906 77.875 88.054688 77.675781 87.007812 C 77.476562 85.90625 75.980469 85.558594 75.632812 86.507812 Z M 75.632812 86.507812 "/>
<path style=" stroke:none;fill-rule:nonzero;fill:rgb(0%,0%,0%);fill-opacity:1;" d="M 52.101562 86.855469 C 52.25 87.105469 52.597656 87.355469 52.898438 87.355469 C 53.148438 87.355469 53.347656 87.105469 53.347656 86.855469 C 53.347656 86.558594 52.996094 86.355469 52.546875 86.355469 C 52.148438 86.355469 51.949219 86.558594 52.101562 86.855469 Z M 52.101562 86.855469 "/>
<path style=" stroke:none;fill-rule:nonzero;fill:rgb(0%,0%,0%);fill-opacity:1;" d="M 69 86.90625 C 68.503906 87.753906 69.648438 88.703125 70.347656 88.003906 C 70.945312 87.40625 70.546875 86.355469 69.800781 86.355469 C 69.550781 86.355469 69.199219 86.605469 69 86.90625 Z M 69 86.90625 "/>
<path style=" stroke:none;fill-rule:nonzero;fill:rgb(0%,0%,0%);fill-opacity:1;" d="M 84.957031 90.050781 C 84.457031 91.347656 85.15625 92.445312 86.351562 92.246094 C 87.199219 92.148438 87.496094 91.75 87.496094 90.851562 C 87.496094 89.953125 87.199219 89.550781 86.351562 89.453125 C 85.703125 89.351562 85.105469 89.601562 84.957031 90.050781 Z M 84.957031 90.050781 "/>
<path style=" stroke:none;fill-rule:nonzero;fill:rgb(0%,0%,0%);fill-opacity:1;" d="M 57.933594 90.898438 C 58.03125 91.199219 58.332031 91.398438 58.582031 91.398438 C 58.832031 91.398438 59.128906 91.199219 59.230469 90.898438 C 59.328125 90.601562 59.03125 90.351562 58.582031 90.351562 C 58.132812 90.351562 57.832031 90.601562 57.933594 90.898438 Z M 57.933594 90.898438 "/>
<path style=" stroke:none;fill-rule:nonzero;fill:rgb(0%,0%,0%);fill-opacity:1;" d="M 78.375 93.445312 C 78.472656 94.195312 78.871094 94.59375 79.519531 94.59375 C 80.167969 94.59375 80.566406 94.195312 80.667969 93.445312 C 80.816406 92.546875 80.617188 92.347656 79.519531 92.347656 C 78.425781 92.347656 78.222656 92.546875 78.375 93.445312 Z M 78.375 93.445312 "/>
<path style=" stroke:none;fill-rule:nonzero;fill:rgb(0%,0%,0%);fill-opacity:1;" d="M 64.316406 93.59375 C 64.316406 93.996094 64.761719 94.34375 65.3125 94.34375 C 65.859375 94.34375 66.308594 93.996094 66.308594 93.59375 C 66.308594 93.195312 65.859375 92.847656 65.3125 92.847656 C 64.761719 92.847656 64.316406 93.195312 64.316406 93.59375 Z M 64.316406 93.59375 "/>
<path style=" stroke:none;fill-rule:nonzero;fill:rgb(0%,0%,0%);fill-opacity:1;" d="M 71.292969 94.292969 C 71.292969 95.640625 72.242188 96.089844 73.140625 95.191406 C 74.035156 94.292969 73.589844 93.347656 72.242188 93.347656 C 71.644531 93.347656 71.292969 93.695312 71.292969 94.292969 Z M 71.292969 94.292969 "/>
</g>
</svg>
